HIERARCHY
ROOT Hips
{
  OFFSET -69.4423 88.0299 51.6846
  CHANNELS 6 Xposition Yposition Zposition Zrotation Xrotation Yrotation
  JOINT Spine
  {
    OFFSET 12.0259 -0.162853 1.93176e-005
    CHANNELS 3 Zrotation Xrotation Yrotation
    JOINT Spine1
    {
      OFFSET 15.3169 -0.0121909 0
      CHANNELS 3 Zrotation Xrotation Yrotation
      JOINT Spine2
      {
        OFFSET 15.3176 -0.0121922 0
        CHANNELS 3 Zrotation Xrotation Yrotation
        JOINT Neck
        {
          OFFSET 19.9142 1.56236 0
          CHANNELS 3 Zrotation Xrotation Yrotation
          JOINT Head
          {
            OFFSET 6.92646 0 0
            CHANNELS 3 Zrotation Xrotation Yrotation
            End Site
            {
              OFFSET 20.7666 0 0
            }
          }
          JOINT LeftShoulder
          {
            OFFSET -4.94072 -1.14703 8.14416
            CHANNELS 3 Zrotation Xrotation Yrotation
            JOINT LeftArm
            {
              OFFSET 14.108 0 -2.74767e-005
              CHANNELS 3 Zrotation Xrotation Yrotation
              JOINT LeftForeArm
              {
                OFFSET 28.5802 -0.0783412 -0.0284884
                CHANNELS 3 Zrotation Xrotation Yrotation
                JOINT LeftHand
                {
                  OFFSET 27.092 0 0
                  CHANNELS 3 Zrotation Xrotation Yrotation
                  End Site
                  {
                    OFFSET 9.55928 -0.186424 0.145352
                  }
                }
              }
            }
          }
          JOINT RightShoulder
          {
            OFFSET -7.15748 -1.33027 -6.24935
            CHANNELS 3 Zrotation Xrotation Yrotation
            JOINT RightArm
            {
              OFFSET 14.108 0 1.82997e-005
              CHANNELS 3 Zrotation Xrotation Yrotation
              JOINT RightForeArm
              {
                OFFSET 28.5802 -0.0707221 2.30684e-005
                CHANNELS 3 Zrotation Xrotation Yrotation
                JOINT RightHand
                {
                  OFFSET 27.092 0 -1.30073e-005
                  CHANNELS 3 Zrotation Xrotation Yrotation
                  End Site
                  {
                    OFFSET 9.55929 -0.186417 -0.145354
                  }
                }
              }
            }
          }
        }
      }
    }
  }
  JOINT LeftUpLeg
  {
    OFFSET 0.00499725 -0.534999 8.837
    CHANNELS 3 Zrotation Xrotation Yrotation
    JOINT LeftLeg
    {
      OFFSET 39.9035 -0.00124594 0.000252775
      CHANNELS 3 Zrotation Xrotation Yrotation
      JOINT LeftFoot
      {
        OFFSET 39.6689 0 0
        CHANNELS 3 Zrotation Xrotation Yrotation
        JOINT LeftToe
        {
          OFFSET 10.1624 13.6296 0
          CHANNELS 3 Zrotation Xrotation Yrotation
          End Site
          {
            OFFSET 8.38147 0 0
          }
        }
      }
    }
  }
  JOINT RightUpLeg
  {
    OFFSET 0.00499725 -0.535 -8.837
    CHANNELS 3 Zrotation Xrotation Yrotation
    JOINT RightLeg
    {
      OFFSET 39.9036 -0.000268477 0.000106433
      CHANNELS 3 Zrotation Xrotation Yrotation
      JOINT RightFoot
      {
        OFFSET 39.6689 1.17892e-005 0
        CHANNELS 3 Zrotation Xrotation Yrotation
        JOINT RightToe
        {
          OFFSET 10.1624 13.6296 0
          CHANNELS 3 Zrotation Xrotation Yrotation
          End Site
          {
            OFFSET 8.38147 0 0
          }
        }
      }
    }
  }
}
MOTION
Frames:	18
Frame Time:	0.0333333
54.7053 89.2394 18.445 -86.0081 39.2672 175.434 1.39612 -0.0101834 0.126615 2.79135 -0.0167909 0.253588 2.79134 -0.016825 0.253582 -10.1358 -7.60618 -15.0657 51.4244 -3.12049 24.3012 -173.463 -8.92839 -97.2971 -21.1408 2.8453 82.2789 -23.5231 2.3342 -15.046 7.08695 -81.5665 9.6608 -173.671 -11.5476 70.9888 -5.50579 -9.78375 -81.9852 -28.1528 -3.77474 16.7402 8.02495 85.801 -8.00907 -13.2813 -1.75055 -172.071 -36.3952 0.856822 -0.922899 4.45538 10.3817 1.84764 90 4.77083e-015 3.18055e-015 -10.6586 -0.64189 179.874 -31.681 -0.607173 0.497971 2.88054 -3.16455 -1.4551 90 -8.74653e-015 -3.18055e-015 
54.6321 89.0437 19.6876 -86.1658 40.5771 175.825 1.37592 0.0285205 0.167799 2.75177 0.0615462 0.335005 2.75176 0.0615281 0.334997 -10.1028 -7.57337 -15.1296 51.6836 -3.18774 24.0983 -173.499 -8.91379 -97.3212 -21.9195 2.50288 82.9398 -22.9729 2.24157 -14.7921 6.79081 -81.1766 9.29757 -173.69 -11.5166 70.9071 -3.93025 -9.32554 -81.0545 -28.1482 -3.77454 16.7177 9.55491 86.5086 -9.55504 -14.6279 -1.59839 -175.384 -34.8267 0.838382 -0.96543 7.77882 13.4308 1.50566 90 4.77083e-015 3.18055e-015 -11.3106 -0.635295 -179.792 -33.2158 -0.609307 0.426577 3.71972 -4.3628 -1.68732 90 6.36111e-015 3.18055e-015 
54.5485 88.6606 20.9974 -86.0976 41.7452 175.654 1.271 0.0162394 0.0914994 2.54199 0.0348968 0.182767 2.54198 0.0349183 0.18276 -9.74476 -7.57712 -14.2962 52.1055 -3.01455 23.955 -173.781 -8.7831 -96.5471 -23.2588 3.81316 82.8524 -22.9889 2.2243 -14.7695 7.55845 -81.7711 9.91925 -173.919 -11.3427 71.7553 -2.56189 -9.56295 -81.5838 -28.4931 -3.85545 16.8903 10.3842 86.8622 -10.3989 -15.6756 -3.43876 -178.157 -32.6169 0.867057 -0.992709 7.35082 19.6568 1.33239 90 8.74653e-015 6.36111e-015 -11.8332 -0.421266 -178.922 -35.0207 -0.607335 0.357529 4.71638 -5.0434 -1.79323 90 -1.19271e-014 -3.18055e-015 
54.4174 88.4221 22.2271 -86.072 43.1766 175.711 1.35831 -0.0228054 0.240733 2.7167 -0.0393808 0.482084 2.7167 -0.039394 0.482076 -10.375 -7.41503 -14.8 52.3515 -2.61176 24.2374 -173.214 -8.8758 -96.975 -23.7736 3.78438 83.5879 -22.7634 2.18355 -14.65 7.42002 -81.3488 9.7721 -173.327 -11.3927 71.2893 -1.75433 -8.88413 -80.5826 -28.8554 -3.9523 17.0806 11.3153 87.1902 -11.3443 -16.7282 -3.84796 -179.963 -29.8859 1.02434 -1.11039 -0.161957 25.6005 3.44852 90 1.63003e-014 6.36111e-015 -12.3608 -0.485591 -178.472 -36.5764 -0.600508 0.295276 5.52166 -6.20497 -1.91693 90 -1.59028e-015 -6.36111e-015 
54.237 88.3242 23.3508 -85.906 45.2557 175.984 1.40906 0.0926358 0.21308 2.81779 0.190894 0.423968 2.8178 0.190884 0.423957 -10.3975 -7.55332 -14.3535 51.8205 -3.06237 24.1725 -173.149 -8.96178 -96.5177 -24.6599 3.91043 83.9269 -22.4324 2.12048 -14.4618 7.74758 -81.5817 10.1147 -173.24 -11.4535 71.72 -0.598651 -8.42494 -80.4147 -29.3385 -4.08727 17.3446 10.1895 86.884 -10.2275 -16.6096 -3.74962 179.395 -29.4615 1.09651 -1.17882 -3.6602 20.9399 4.11369 90 -3.18055e-015 -3.18055e-015 -13.3258 -1.3166 -178.647 -38.8225 -0.583271 0.231591 5.0283 -8.64142 -2.15926 90 -7.95139e-015 -0 
53.8665 88.1489 24.4627 -85.4616 47.5166 175.632 1.47948 0.133267 0.253975 2.95836 0.273601 0.504573 2.95836 0.273585 0.504556 -10.4764 -7.46631 -14.3147 51.6501 -2.79581 24.2859 -173.039 -8.88931 -96.4838 -24.7902 4.02674 84.1137 -21.9984 2.04543 -14.2161 8.23085 -81.8086 10.5596 -173.139 -11.3809 71.7239 -0.610519 -8.26846 -80.497 -30.0739 -4.30221 17.7603 14.5736 87.7941 -14.6099 -15.8203 -3.85535 -179.889 -29.7805 1.08041 -1.15727 -2.05701 20.3341 3.6505 90 -2.0276e-014 -1.59028e-014 -14.0376 -1.99558 -178.341 -40.679 -0.556301 0.180258 5.35642 -10.9467 -2.29809 90 -3.18055e-015 6.36111e-015 
53.5644 88.0624 25.3149 -85.49 50.1147 176.679 1.49115 0.231582 0.0279897 2.98224 0.464297 0.0500872 2.98222 0.464288 0.0500827 -10.5136 -7.59029 -14.326 52.0104 -2.62653 24.842 -173.003 -9.00079 -96.4025 -24.5315 3.76865 83.7411 -20.899 1.88131 -13.608 9.30776 -81.9254 11.7445 -173.143 -11.5488 71.7014 0.207393 -7.40591 -81.1114 -30.509 -4.42855 18.0148 10.6022 87.1638 -10.6299 -14.9972 -3.10488 179.613 -29.3768 1.07626 -1.14924 -1.22631 17.6418 3.11358 90 1.59028e-014 1.27222e-014 -15.6623 -3.2926 -179.893 -43.4411 -0.468065 0.117494 6.95247 -14.051 -2.26143 90 -4.77083e-015 9.54166e-015 
53.1392 88.153 26.0668 -85.7731 53.2167 177.484 1.43908 0.338909 -0.258008 2.87976 0.671699 -0.524304 2.87974 0.671711 -0.524308 -10.6012 -7.5314 -13.99 52.5204 -2.23162 25.0901 -172.842 -8.9193 -95.9603 -22.7226 3.97388 82.7399 -19.9006 1.73896 -13.0279 8.60623 -81.1077 11.066 -173.002 -11.5016 72.0641 0.85031 -6.53603 -82.7543 -30.1302 -4.32642 17.829 5.71615 84.8063 -5.65064 -14.4871 -2.29684 179.614 -28.8734 1.0785 -1.18918 -0.889126 14.6817 2.70808 90 1.35174e-014 2.54444e-014 -17.8351 -4.24906 178.651 -46.5725 -0.355295 0.0581485 8.76177 -16.6771 -1.9273 90 -3.18055e-015 -0 
52.6656 88.2391 26.792 -86.1243 56.0278 178.191 1.41956 0.29045 -0.355237 2.84096 0.572492 -0.717417 2.84094 0.572487 -0.717436 -10.8193 -7.25285 -14.1808 52.5807 -1.98391 24.7328 -172.558 -8.70802 -96.05 -19.7341 3.44646 82.3911 -18.5908 1.56823 -12.303 8.17054 -79.7982 10.5559 -172.789 -11.2939 71.8627 0.111856 -6.31567 -83.8963 -30.6001 -4.45784 18.1033 5.68347 85.0033 -5.65612 -13.5497 -1.81806 179.817 -27.8246 1.0744 -1.2223 -0.684303 12.2585 2.37932 90 -9.54166e-015 -1.90833e-014 -19.8456 -4.85081 176.948 -49.0631 -0.283077 0.0681444 9.34351 -15.0916 -1.83703 90 -7.95139e-015 -6.36111e-015 
52.0931 88.4701 27.645 -86.0592 58.6718 177.987 1.45191 0.247412 -0.3216 2.90524 0.487044 -0.649239 2.90521 0.487051 -0.649249 -11.3173 -6.9321 -14.1922 52.8341 -1.8549 24.1277 -171.996 -8.51132 -96.0103 -19.8646 4.02441 82.0653 -18.2961 1.52064 -12.0899 10.0273 -81.275 12.5399 -172.24 -11.0472 71.8838 -1.48803 -6.28662 -84.6745 -30.7047 -4.4835 18.1753 5.87533 85.2796 -5.8762 -12.2562 -0.974606 -179.268 -26.5065 1.06504 -1.27696 -0.841661 10.3739 2.18583 90 -8.74653e-015 -6.36111e-015 -20.182 -5.26717 175.472 -49.1248 -0.293396 0.190716 9.50647 -5.05195 -1.72822 90 1.11319e-014 6.36111e-015 
51.5531 88.8868 28.5236 -86.4887 60.5953 178.428 1.40749 0.104505 -0.28864 2.81551 0.202393 -0.579622 2.81551 0.202398 -0.579633 -11.7239 -6.69432 -14.103 53.0807 -1.79843 23.6251 -171.518 -8.35533 -95.8562 -19.4299 4.13757 81.9584 -17.651 1.43312 -11.7108 11.1855 -81.4482 13.6031 -171.789 -10.8399 71.9947 -2.81021 -6.5033 -85.1714 -31.0406 -4.55826 18.3461 4.95205 85.0518 -4.99872 -10.9111 -0.962625 -178.777 -24.8152 1.05665 -1.34943 -1.27984 8.47491 1.94699 90 1.35174e-014 -0 -20.3295 -4.61283 173.036 -47.184 -0.304958 0.307251 6.58921 -1.20998 -1.39045 90 -7.95139e-016 9.54166e-015 
50.7493 89.0794 29.4493 -87.0935 62.3453 178.395 1.34562 -0.0538536 -0.106069 2.69113 -0.109701 -0.210683 2.69113 -0.109692 -0.21069 -12.0464 -6.57246 -14.079 53.1905 -1.8612 23.3467 -171.155 -8.28786 -95.7903 -18.7077 3.91033 81.7652 -17.2952 1.38393 -11.5117 7.5538 -79.6535 10.1061 -171.455 -10.7579 72.013 -3.48644 -6.93661 -85.2531 -30.5696 -4.42603 18.0851 3.85913 83.2945 -3.80041 -10.2006 -1.11861 -177.551 -24.0916 1.03228 -1.42069 -1.30992 6.43913 1.6488 90 5.56597e-015 3.18055e-015 -19.8463 -3.39759 171.157 -43.9172 -0.308484 0.404674 4.51215 0.484856 -1.0389 90 3.18055e-015 3.18055e-015 
49.8214 89.1508 30.4053 -87.8079 63.8637 178.633 1.31035 -0.208692 0.0809615 2.62104 -0.414988 0.166825 2.62103 -0.414997 0.166822 -12.2178 -6.61217 -14.2542 52.7655 -2.03862 23.5198 -171.021 -8.39892 -95.9727 -19.3203 3.96845 81.8458 -17.5996 1.41862 -11.6813 7.56857 -79.8596 9.92149 -171.321 -10.8409 71.8474 -3.66793 -7.27008 -85.1569 -30.4992 -4.41375 18.0536 4.45712 83.8952 -4.40652 -9.56566 -1.54999 -176.488 -23.4617 1.00418 -1.48879 -1.44123 4.36787 1.28116 90 3.18055e-015 6.36111e-015 -18.7741 -2.05043 169.047 -40.2752 -0.29115 0.500666 2.82032 3.08681 -0.426759 90 1.03368e-014 3.18055e-015 
48.691 89.2071 31.3439 -88.6172 65.3142 178.882 1.28899 -0.346568 0.249128 2.57955 -0.686944 0.506166 2.57954 -0.686962 0.506162 -11.699 -6.88241 -14.4225 51.6053 -2.39414 24.1176 -171.607 -8.57913 -96.2431 -20.9549 4.1813 81.6217 -18.3304 1.5058 -12.0615 9.36819 -81.5525 11.7712 -171.894 -11.012 71.6226 -2.68777 -7.20441 -85.1405 -30.1091 -4.31595 17.8526 5.40527 84.6906 -5.36088 -8.906 -2.06725 -175.194 -22.7149 0.970587 -1.56 -1.83835 2.53893 0.898343 90 7.15625e-015 2.22639e-014 -17.8793 -0.896413 167.101 -36.9457 -0.20732 0.549514 -2.43073 6.50086 1.21195 90 -5.56597e-015 7.95139e-015 
47.3968 89.1713 32.4175 -88.5056 66.914 178.625 1.32044 -0.401527 0.331186 2.64327 -0.794846 0.671726 2.64326 -0.794851 0.671715 -11.3715 -6.95553 -14.3249 50.9106 -2.61005 24.151 -171.923 -8.54777 -96.2683 -23.2634 4.77477 81.1447 -19.2518 1.61133 -12.5206 10.7555 -83.02 13.2479 -172.194 -10.9701 71.6536 -1.42411 -7.30715 -84.9912 -29.5467 -4.16629 17.5507 5.50595 84.7057 -5.45965 -7.69594 -2.18631 -174.025 -21.8069 0.93719 -1.61184 -2.22737 1.04232 0.514581 90 1.59028e-015 -6.36111e-015 -16.6167 0.0590084 165.248 -34.1379 -0.0011992 0.510437 -9.37045 11.2241 4.33664 90 8.34896e-015 1.43125e-014 
46.0869 89.2193 33.4609 -88.9659 68.4622 179.255 1.2645 -0.471911 0.329009 2.53182 -0.93596 0.668537 2.53181 -0.935969 0.668531 -11.4771 -6.82312 -14.5051 51.2743 -2.46294 24.0126 -171.817 -8.44936 -96.5043 -25.5804 5.50149 80.5193 -20.0295 1.70116 -12.8926 13.8402 -84.3448 16.3171 -172.088 -10.8636 71.4726 -0.315334 -7.50678 -84.7991 -28.763 -3.96024 17.1281 5.43484 84.5411 -5.38604 -6.26331 -2.5065 -173.304 -20.1859 0.897139 -1.67445 -2.96704 -0.752502 -0.0204791 90 0 3.18055e-015 -15.5905 0.947063 163.169 -32.0359 0.192879 0.460909 -13.6871 14.7237 7.06501 90 4.24902e-015 4.57205e-015 
44.6321 88.9991 34.6763 -88.8032 70.1709 179.404 1.26601 -0.448194 0.215889 2.53383 -0.890965 0.441803 2.53382 -0.890966 0.441794 -11.4279 -6.90031 -14.1872 51.6823 -2.78578 23.818 -171.793 -8.42267 -96.1883 -27.2141 5.9116 79.1875 -20.336 1.72568 -13.0028 14.1969 -84.4443 16.6379 -172.088 -10.8443 71.7945 0.334057 -7.80874 -84.9679 -27.8208 -3.70805 16.602 5.17766 84.2432 -5.11898 -4.80493 -2.67309 -172.606 -19.337 0.863388 -1.70299 -3.31198 -2.68002 -0.611234 90 7.15625e-015 9.54166e-015 -14.3839 1.44262 161.425 -29.8266 0.392503 0.374571 -19.2837 15.5114 9.49656 90 2.5842e-015 7.15625e-015 
42.8663 88.7899 35.965 -87.8798 71.8326 178.565 1.20626 -0.43102 0.18006 2.41397 -0.857657 0.369337 2.41397 -0.857655 0.369325 -11.1052 -6.81075 -14.2196 52.0235 -2.64383 23.6191 -172.089 -8.24356 -96.3081 -27.5128 6.51758 78.3849 -20.6648 1.76402 -13.1307 14.5373 -84.4291 16.9839 -172.41 -10.6588 71.6962 1.1818 -8.60075 -84.9744 -26.7685 -3.4375 16.0202 4.16159 82.9088 -4.0654 -3.33205 -2.85046 -171.452 -18.9045 0.829652 -1.69955 -3.72467 -4.53397 -1.20516 90 1.59028e-015 6.36111e-015 -12.8432 2.42872 160.677 -28.6075 0.419094 0.384492 -21.0192 13.4764 9.13944 90 -5.96354e-016 1.94809e-014 
